<?xml version="1.0" encoding="UTF-8" standalone="no"?>
<!DOCTYPE svg PUBLIC "-//W3C//DTD SVG 1.1//EN" "http://www.w3.org/Graphics/SVG/1.1/DTD/svg11.dtd">
<svg width="100%" height="100%" viewBox="0 0 1059 230" version="1.1" xmlns="http://www.w3.org/2000/svg" xmlns:xlink="http://www.w3.org/1999/xlink" xml:space="preserve" xmlns:serif="http://www.serif.com/" style="fill-rule:evenodd;clip-rule:evenodd;stroke-linejoin:round;stroke-miterlimit:2;">
    <g transform="matrix(4.16667,0,0,4.16667,0,0)">
        <path d="M0,51.792L15.048,51.792C19.027,51.792 22.484,50.938 24.935,48.777C27.386,46.617 28.889,43.124 28.892,37.702C28.89,31.877 27.488,28.34 25.154,26.246C22.82,24.149 19.478,23.445 15.49,23.446L15.49,23.445L0,23.445L0,29.567L13.12,29.567C15.108,29.556 16.467,30.261 17.235,31.625C18.005,32.979 18.236,34.905 18.239,37.412C18.236,39.834 18.025,41.739 17.272,43.093C16.52,44.456 15.17,45.185 13.16,45.173L10.171,45.173L10.171,35.139L0,35.139L0,51.792Z" style="fill:rgb(0,90,170);fill-rule:nonzero;"/>
        <path d="M31.101,51.792L41.272,51.792L41.272,41.509L53.943,41.509L53.943,35.139L41.272,35.139L41.272,29.567L53.943,29.567L53.943,23.445L31.101,23.445L31.101,51.792Z" style="fill:rgb(0,90,170);fill-rule:nonzero;"/>
        <path d="M60.947,26.523C57.942,28.9 56.043,32.434 56.039,37.205C56.043,42.296 57.871,46.04 60.834,48.54C63.799,51.039 67.926,52.29 72.533,52.29C76.849,52.289 80.258,51.854 83.846,50.79L83.846,37.709L75.203,37.709L75.203,45.328L75.012,45.402C74.285,45.679 73.379,45.667 72.613,45.671C70.385,45.677 68.797,44.746 67.822,43.301C66.846,41.859 66.453,39.937 66.451,37.909C66.449,35.212 67.365,33.1 68.988,31.688C70.61,30.275 72.905,29.567 75.627,29.567C78.41,29.567 80.604,30.193 82.164,31.015L82.164,23.962C79.594,23.334 77.638,22.95 72.533,22.948L72.531,22.948C68.086,22.948 63.953,24.149 60.947,26.523Z" style="fill:rgb(0,90,170);fill-rule:nonzero;"/>
        <path d="M99.353,32.95L100.181,32.95C103.261,33.018 104.842,31.551 104.922,28.551C104.899,26.974 104.502,25.862 103.734,25.213C102.951,24.595 101.978,24.291 100.818,24.3L99.353,24.3L99.353,32.95ZM98.361,23.411L100.863,23.411C102.657,23.43 103.955,23.913 104.755,24.856C105.538,25.804 105.923,27.055 105.914,28.607C105.895,30.47 105.348,31.811 104.275,32.627C103.215,33.436 101.833,33.839 100.127,33.839L98.361,33.839L98.361,23.411Z" style="fill:rgb(0,90,170);fill-rule:nonzero;"/>
        <path d="M112.819,29.499C112.819,28.797 112.677,28.186 112.394,27.663C112.096,27.133 111.607,26.86 110.927,26.84C110.261,26.86 109.735,27.139 109.347,27.676C108.951,28.22 108.752,28.827 108.752,29.499L112.819,29.499ZM113.261,33.602C112.569,33.873 111.855,34.012 111.12,34.022C109.913,33.998 109.048,33.614 108.525,32.869C108.006,32.139 107.751,31.193 107.761,30.03C107.771,28.842 108.06,27.881 108.63,27.147C109.181,26.417 109.928,26.047 110.871,26.038C111.902,26.057 112.656,26.432 113.131,27.162C113.583,27.877 113.81,28.762 113.81,29.818L113.81,30.299L108.752,30.299C108.752,31.129 108.96,31.812 109.375,32.348C109.781,32.92 110.385,33.209 111.187,33.219C111.546,33.219 111.923,33.154 112.32,33.022C112.716,32.915 113.031,32.791 113.261,32.649L113.261,33.602Z" style="fill:rgb(0,90,170);fill-rule:nonzero;"/>
        <path d="M121.538,32.045C121.528,32.624 121.548,33.221 121.6,33.839L120.717,33.839L120.717,32.483L120.689,32.483C120.623,32.648 120.531,32.816 120.414,32.986C120.3,33.166 120.152,33.336 119.968,33.497C119.785,33.647 119.557,33.766 119.284,33.854C119.015,33.965 118.688,34.022 118.302,34.022C117.408,34.012 116.763,33.733 116.368,33.182C115.972,32.643 115.779,31.944 115.789,31.088L115.789,26.22L116.692,26.22L116.692,30.852C116.692,31.583 116.832,32.153 117.11,32.562C117.383,33 117.83,33.219 118.448,33.219C118.863,33.219 119.214,33.129 119.501,32.95C119.794,32.779 120.016,32.56 120.167,32.291C120.341,32.014 120.462,31.715 120.528,31.393C120.599,31.077 120.634,30.758 120.634,30.436L120.634,26.22L121.538,26.22L121.538,32.045Z" style="fill:rgb(0,90,170);fill-rule:nonzero;"/>
        <path d="M127.275,27.022L125.596,27.022L125.596,31.963C125.596,32.313 125.673,32.608 125.83,32.847C125.971,33.096 126.221,33.219 126.581,33.219C126.911,33.219 127.192,33.159 127.422,33.038L127.479,33.812C127.372,33.85 127.221,33.894 127.028,33.942C126.826,33.995 126.604,34.022 126.365,34.022C125.969,34.022 125.657,33.952 125.426,33.81C125.205,33.668 125.038,33.485 124.925,33.255C124.827,33.017 124.763,32.75 124.735,32.453C124.707,32.151 124.692,31.825 124.692,31.475L124.692,27.022L123.246,27.022L123.246,26.22L124.692,26.22L124.692,24.381L125.596,24.053L125.596,26.22L127.275,26.22L127.275,27.022Z" style="fill:rgb(0,90,170);fill-rule:nonzero;"/>
        <path d="M128.511,32.737C129.073,33.049 129.712,33.209 130.433,33.219C130.889,33.219 131.275,33.096 131.59,32.847C131.901,32.618 132.061,32.29 132.071,31.861C132.061,31.408 131.882,31.052 131.534,30.793C131.185,30.545 130.774,30.322 130.304,30.122C130.082,30.014 129.871,29.901 129.668,29.778C129.466,29.657 129.272,29.523 129.089,29.377C128.923,29.215 128.787,29.031 128.679,28.821C128.576,28.622 128.524,28.388 128.524,28.12C128.534,27.36 128.783,26.823 129.272,26.505C129.748,26.194 130.298,26.038 130.923,26.038C131.136,26.038 131.412,26.057 131.75,26.096C132.084,26.154 132.416,26.249 132.746,26.378L132.661,27.198C132.127,26.969 131.581,26.85 131.019,26.84C130.547,26.84 130.172,26.928 129.894,27.103C129.748,27.196 129.634,27.323 129.554,27.483C129.47,27.639 129.427,27.848 129.427,28.112C129.427,28.267 129.481,28.416 129.59,28.557C129.694,28.688 129.832,28.807 130.007,28.915C130.182,29.017 130.379,29.122 130.601,29.229C130.823,29.332 131.039,29.441 131.251,29.557C131.733,29.768 132.152,30.047 132.51,30.398C132.869,30.749 133.052,31.233 133.062,31.852C133.062,32.251 132.984,32.584 132.83,32.853C132.665,33.13 132.458,33.354 132.208,33.525C131.667,33.856 131.094,34.022 130.488,34.022C129.778,34.022 129.09,33.901 128.427,33.661L128.511,32.737Z" style="fill:rgb(0,90,170);fill-rule:nonzero;"/>
        <path d="M139.695,27.228C139.171,26.979 138.644,26.85 138.111,26.84C137.224,26.85 136.545,27.143 136.074,27.717C135.579,28.308 135.332,29.079 135.332,30.03C135.332,30.917 135.575,31.662 136.06,32.261C136.532,32.891 137.182,33.209 138.012,33.219C138.583,33.219 139.138,33.105 139.681,32.875L139.765,33.754C139.167,33.942 138.537,34.032 137.873,34.022C136.686,33.998 135.802,33.594 135.223,32.811C134.634,32.041 134.34,31.115 134.34,30.03C134.35,28.823 134.686,27.862 135.35,27.147C136.01,26.417 136.888,26.047 137.986,26.038C138.438,26.038 138.814,26.072 139.116,26.139C139.271,26.168 139.406,26.2 139.518,26.233C139.626,26.272 139.709,26.305 139.765,26.334L139.695,27.228Z" style="fill:rgb(0,90,170);fill-rule:nonzero;"/>
        <path d="M141.529,22.629L142.432,22.629L142.432,27.499L142.46,27.499C142.664,27.073 142.962,26.719 143.358,26.438C143.753,26.18 144.219,26.047 144.756,26.038C145.741,26.047 146.412,26.347 146.77,26.936C147.119,27.534 147.288,28.315 147.278,29.278L147.278,33.839L146.375,33.839L146.375,29.288C146.375,28.952 146.356,28.632 146.318,28.331C146.276,28.043 146.193,27.79 146.07,27.571C145.839,27.093 145.355,26.85 144.62,26.84C143.827,26.86 143.26,27.174 142.92,27.783C142.585,28.391 142.422,29.049 142.432,29.755L142.432,33.839L141.529,33.839L141.529,22.629Z" style="fill:rgb(0,90,170);fill-rule:nonzero;"/>
        <path d="M154.343,29.499C154.343,28.797 154.202,28.186 153.918,27.663C153.621,27.133 153.131,26.86 152.452,26.84C151.786,26.86 151.259,27.139 150.872,27.676C150.475,28.22 150.277,28.827 150.277,29.499L154.343,29.499ZM154.786,33.602C154.093,33.873 153.379,34.012 152.644,34.022C151.437,33.998 150.573,33.614 150.049,32.869C149.531,32.139 149.276,31.193 149.286,30.03C149.295,28.842 149.584,27.881 150.155,27.147C150.706,26.417 151.453,26.047 152.395,26.038C153.426,26.057 154.18,26.432 154.656,27.162C155.108,27.877 155.334,28.762 155.334,29.818L155.334,30.299L150.277,30.299C150.277,31.129 150.485,31.812 150.9,32.348C151.305,32.92 151.91,33.209 152.711,33.219C153.071,33.219 153.448,33.154 153.844,33.022C154.241,32.915 154.555,32.791 154.786,32.649L154.786,33.602Z" style="fill:rgb(0,90,170);fill-rule:nonzero;"/>
        <path d="M98.317,41.346L103.119,41.346L103.119,42.236L99.309,42.236L99.309,45.966L102.942,45.966L102.942,46.855L99.309,46.855L99.309,51.775L98.317,51.775L98.317,41.346Z" style="fill:rgb(0,90,170);fill-rule:nonzero;"/>
        <path d="M105.403,47.965C105.403,48.873 105.616,49.622 106.041,50.211C106.447,50.831 107.052,51.146 107.856,51.155C108.659,51.146 109.273,50.831 109.699,50.211C110.105,49.622 110.308,48.873 110.308,47.965C110.308,47.053 110.105,46.294 109.699,45.69C109.273,45.09 108.659,44.786 107.856,44.776C107.052,44.786 106.447,45.09 106.041,45.69C105.616,46.294 105.403,47.053 105.403,47.965ZM104.412,47.965C104.412,46.88 104.692,45.954 105.252,45.185C105.808,44.397 106.674,43.993 107.852,43.973C109.048,43.993 109.926,44.397 110.487,45.185C111.029,45.954 111.299,46.88 111.299,47.965C111.299,49.031 111.029,49.953 110.487,50.731C109.926,51.524 109.048,51.933 107.852,51.958C106.674,51.933 105.808,51.524 105.252,50.731C104.692,49.953 104.412,49.031 104.412,47.965Z" style="fill:rgb(0,90,170);fill-rule:nonzero;"/>
        <path d="M113.293,45.856C113.293,45.151 113.275,44.584 113.237,44.156L114.141,44.156L114.141,45.615L114.168,45.615C114.343,45.167 114.588,44.786 114.905,44.469C115.215,44.149 115.602,43.983 116.064,43.973C116.304,43.983 116.516,44.012 116.7,44.06L116.7,45.039C116.498,44.98 116.276,44.951 116.036,44.951C115.677,44.96 115.382,45.05 115.152,45.221C114.92,45.401 114.732,45.645 114.586,45.952C114.449,46.253 114.352,46.578 114.296,46.923C114.23,47.293 114.197,47.654 114.197,48.004L114.197,51.775L113.293,51.775L113.293,45.856Z" style="fill:rgb(0,90,170);fill-rule:nonzero;"/>
        <path d="M117.704,50.672C118.264,50.985 118.904,51.146 119.625,51.155C120.081,51.155 120.466,51.031 120.782,50.783C121.092,50.554 121.252,50.225 121.262,49.796C121.252,49.343 121.074,48.988 120.725,48.73C120.376,48.481 119.966,48.257 119.496,48.057C119.274,47.951 119.062,47.835 118.86,47.714C118.658,47.592 118.464,47.458 118.281,47.312C118.116,47.152 117.979,46.966 117.871,46.757C117.767,46.557 117.715,46.324 117.715,46.055C117.725,45.295 117.974,44.757 118.463,44.441C118.939,44.129 119.49,43.973 120.116,43.973C120.328,43.973 120.603,43.993 120.942,44.032C121.276,44.089 121.607,44.184 121.937,44.314L121.852,45.133C121.319,44.905 120.772,44.786 120.21,44.776C119.739,44.776 119.364,44.863 119.085,45.039C118.94,45.131 118.827,45.257 118.747,45.418C118.662,45.575 118.619,45.784 118.619,46.046C118.619,46.203 118.673,46.351 118.782,46.493C118.885,46.624 119.024,46.744 119.199,46.85C119.374,46.953 119.571,47.057 119.792,47.165C120.014,47.267 120.231,47.376 120.443,47.494C120.924,47.703 121.343,47.983 121.702,48.333C122.06,48.684 122.244,49.169 122.253,49.788C122.253,50.187 122.175,50.521 122.021,50.789C121.856,51.066 121.649,51.291 121.4,51.46C120.859,51.791 120.286,51.958 119.679,51.958C118.969,51.958 118.282,51.837 117.62,51.596L117.704,50.672Z" style="fill:rgb(0,90,170);fill-rule:nonzero;"/>
        <path d="M128.886,45.164C128.363,44.915 127.835,44.786 127.302,44.776C126.416,44.786 125.737,45.078 125.265,45.654C124.77,46.244 124.523,47.014 124.523,47.965C124.523,48.853 124.766,49.597 125.251,50.197C125.723,50.826 126.374,51.146 127.204,51.155C127.774,51.155 128.33,51.041 128.873,50.811L128.957,51.69C128.358,51.877 127.728,51.967 127.064,51.958C125.877,51.933 124.994,51.529 124.415,50.746C123.826,49.977 123.532,49.05 123.532,47.965C123.542,46.759 123.877,45.798 124.542,45.083C125.202,44.353 126.08,43.983 127.177,43.973C127.629,43.973 128.005,44.007 128.307,44.075C128.462,44.104 128.597,44.135 128.709,44.168C128.817,44.208 128.901,44.241 128.957,44.27L128.886,45.164Z" style="fill:rgb(0,90,170);fill-rule:nonzero;"/>
        <path d="M130.72,40.565L131.624,40.565L131.624,45.434L131.652,45.434C131.855,45.007 132.154,44.654 132.549,44.374C132.945,44.117 133.411,43.983 133.948,43.973C134.932,43.983 135.603,44.283 135.961,44.872C136.31,45.469 136.479,46.25 136.469,47.213L136.469,51.775L135.566,51.775L135.566,47.223C135.566,46.887 135.547,46.568 135.509,46.266C135.467,45.979 135.384,45.725 135.261,45.506C135.031,45.029 134.546,44.786 133.811,44.776C133.018,44.795 132.452,45.109 132.112,45.718C131.777,46.327 131.614,46.985 131.624,47.691L131.624,51.775L130.72,51.775L130.72,40.565Z" style="fill:rgb(0,90,170);fill-rule:nonzero;"/>
        <path d="M144.782,49.98C144.772,50.559 144.792,51.158 144.844,51.775L143.961,51.775L143.961,50.418L143.933,50.418C143.867,50.583 143.775,50.751 143.658,50.921C143.544,51.101 143.396,51.272 143.212,51.432C143.029,51.583 142.801,51.702 142.528,51.79C142.259,51.901 141.932,51.958 141.546,51.958C140.652,51.948 140.007,51.667 139.612,51.118C139.216,50.578 139.023,49.88 139.033,49.024L139.033,44.156L139.936,44.156L139.936,48.788C139.936,49.519 140.076,50.088 140.354,50.498C140.627,50.936 141.074,51.155 141.692,51.155C142.107,51.155 142.458,51.065 142.746,50.885C143.039,50.714 143.26,50.496 143.412,50.227C143.585,49.95 143.707,49.65 143.772,49.329C143.843,49.012 143.878,48.693 143.878,48.372L143.878,44.156L144.782,44.156L144.782,49.98Z" style="fill:rgb(0,90,170);fill-rule:nonzero;"/>
        <path d="M147.345,45.943C147.345,45.36 147.327,44.764 147.289,44.156L148.17,44.156L148.17,45.512L148.199,45.512C148.283,45.333 148.384,45.153 148.501,44.973C148.615,44.792 148.758,44.63 148.932,44.484C149.116,44.324 149.341,44.197 149.61,44.105C149.882,44.017 150.205,43.973 150.576,43.973C151.484,43.983 152.135,44.263 152.53,44.813C152.907,45.348 153.094,46.043 153.094,46.9L153.094,51.775L152.191,51.775L152.191,47.135C152.191,46.41 152.061,45.833 151.801,45.404C151.518,44.995 151.063,44.786 150.436,44.776C149.625,44.795 149.053,45.092 148.723,45.666C148.553,45.94 148.433,46.235 148.362,46.551C148.287,46.882 148.249,47.218 148.249,47.559L148.249,51.775L147.345,51.775L147.345,45.943Z" style="fill:rgb(0,90,170);fill-rule:nonzero;"/>
        <path d="M156.21,47.965C156.2,48.746 156.363,49.429 156.699,50.014C157.03,50.634 157.578,50.954 158.343,50.973C159.166,50.954 159.749,50.624 160.094,49.985C160.424,49.366 160.59,48.693 160.59,47.965C160.59,47.014 160.436,46.249 160.129,45.668C159.808,45.083 159.232,44.786 158.4,44.776C157.965,44.776 157.611,44.871 157.337,45.061C157.058,45.237 156.832,45.485 156.657,45.807C156.5,46.105 156.385,46.444 156.309,46.824C156.243,47.205 156.21,47.585 156.21,47.965ZM161.494,51.148C161.494,52.233 161.239,53.14 160.73,53.87C160.198,54.604 159.3,54.981 158.039,55C157.553,54.991 157.108,54.938 156.703,54.841C156.307,54.739 156.007,54.66 155.805,54.601L155.883,53.666C156.492,54.001 157.216,54.179 158.056,54.199C158.646,54.189 159.108,54.08 159.444,53.871C159.792,53.671 160.049,53.392 160.215,53.033C160.389,52.673 160.5,52.26 160.547,51.793C160.586,51.327 160.605,50.825 160.605,50.285L160.576,50.285C160.053,51.297 159.306,51.794 158.335,51.775C157.176,51.746 156.366,51.318 155.905,50.491C155.66,50.111 155.49,49.703 155.395,49.264C155.278,48.827 155.219,48.394 155.219,47.965C155.209,46.779 155.447,45.823 155.933,45.097C156.414,44.358 157.188,43.983 158.258,43.973C158.743,43.973 159.169,44.029 159.537,44.14C159.89,44.276 160.232,44.565 160.562,45.009L160.59,45.009L160.59,44.154L161.494,44.156L161.494,51.148Z" style="fill:rgb(0,90,170);fill-rule:nonzero;"/>
        <path d="M163.403,50.672C163.963,50.985 164.603,51.146 165.324,51.155C165.78,51.155 166.166,51.031 166.481,50.783C166.792,50.554 166.952,50.225 166.961,49.796C166.952,49.343 166.773,48.988 166.424,48.73C166.076,48.481 165.666,48.257 165.195,48.057C164.973,47.951 164.761,47.835 164.559,47.714C164.357,47.592 164.164,47.458 163.98,47.312C163.815,47.152 163.678,46.966 163.57,46.757C163.466,46.557 163.415,46.324 163.415,46.055C163.424,45.295 163.673,44.757 164.163,44.441C164.638,44.129 165.189,43.973 165.815,43.973C166.027,43.973 166.302,43.993 166.641,44.032C166.975,44.089 167.306,44.184 167.636,44.314L167.551,45.133C167.018,44.905 166.471,44.786 165.91,44.776C165.438,44.776 165.063,44.863 164.785,45.039C164.639,45.131 164.526,45.257 164.446,45.418C164.361,45.575 164.318,45.784 164.318,46.046C164.318,46.203 164.373,46.351 164.481,46.493C164.584,46.624 164.723,46.744 164.898,46.85C165.073,46.953 165.27,47.057 165.492,47.165C165.713,47.267 165.93,47.376 166.142,47.494C166.624,47.703 167.042,47.983 167.401,48.333C167.759,48.684 167.943,49.169 167.953,49.788C167.953,50.187 167.875,50.521 167.72,50.789C167.555,51.066 167.348,51.291 167.099,51.46C166.558,51.791 165.985,51.958 165.378,51.958C164.668,51.958 163.981,51.837 163.319,51.596L163.403,50.672Z" style="fill:rgb(0,90,170);fill-rule:nonzero;"/>
        <path d="M170.339,47.965C170.329,48.746 170.492,49.429 170.828,50.014C171.159,50.634 171.707,50.954 172.472,50.973C173.294,50.954 173.877,50.624 174.223,49.985C174.553,49.366 174.719,48.693 174.719,47.965C174.719,47.014 174.565,46.249 174.258,45.668C173.937,45.083 173.361,44.786 172.529,44.776C172.094,44.776 171.74,44.871 171.466,45.061C171.187,45.237 170.96,45.485 170.786,45.807C170.629,46.105 170.514,46.444 170.438,46.824C170.372,47.205 170.339,47.585 170.339,47.965ZM175.623,51.148C175.623,52.233 175.368,53.14 174.859,53.87C174.327,54.604 173.429,54.981 172.167,55C171.682,54.991 171.237,54.938 170.832,54.841C170.436,54.739 170.136,54.66 169.934,54.601L170.012,53.666C170.621,54.001 171.345,54.179 172.185,54.199C172.775,54.189 173.237,54.08 173.573,53.871C173.921,53.671 174.178,53.392 174.344,53.033C174.518,52.673 174.629,52.26 174.676,51.793C174.715,51.327 174.734,50.825 174.734,50.285L174.705,50.285C174.182,51.297 173.435,51.794 172.464,51.775C171.305,51.746 170.495,51.318 170.034,50.491C169.789,50.111 169.619,49.703 169.524,49.264C169.407,48.827 169.348,48.394 169.348,47.965C169.338,46.779 169.576,45.823 170.062,45.097C170.542,44.358 171.317,43.983 172.387,43.973C172.872,43.973 173.298,44.029 173.666,44.14C174.019,44.276 174.361,44.565 174.691,45.009L174.719,45.009L174.719,44.154L175.623,44.156L175.623,51.148Z" style="fill:rgb(0,90,170);fill-rule:nonzero;"/>
        <path d="M182.601,47.433C182.601,46.734 182.459,46.122 182.176,45.598C181.878,45.069 181.389,44.795 180.709,44.776C180.043,44.795 179.517,45.074 179.129,45.613C178.733,46.156 178.535,46.763 178.535,47.433L182.601,47.433ZM183.043,51.539C182.351,51.808 181.637,51.948 180.902,51.958C179.695,51.933 178.831,51.548 178.307,50.804C177.789,50.075 177.534,49.128 177.543,47.965C177.553,46.779 177.842,45.818 178.413,45.083C178.963,44.353 179.71,43.983 180.653,43.973C181.684,43.993 182.438,44.368 182.914,45.097C183.366,45.812 183.592,46.698 183.592,47.753L183.592,48.235L178.535,48.235C178.535,49.064 178.743,49.748 179.158,50.285C179.563,50.855 180.167,51.146 180.969,51.155C181.329,51.155 181.706,51.089 182.102,50.958C182.499,50.85 182.813,50.726 183.043,50.584L183.043,51.539Z" style="fill:rgb(0,90,170);fill-rule:nonzero;"/>
        <path d="M194.627,51.775L194.627,46.705C194.627,46.422 194.608,46.162 194.569,45.922C194.509,45.694 194.414,45.494 194.281,45.324C194.163,45.148 193.999,45.009 193.787,44.907C193.576,44.82 193.312,44.776 192.998,44.776C192.467,44.776 191.995,44.995 191.583,45.433C191.16,45.891 190.943,46.6 190.933,47.559L190.933,51.775L190.03,51.775L190.03,46.705C190.03,46.422 190.007,46.162 189.963,45.922C189.905,45.694 189.808,45.494 189.676,45.324C189.558,45.148 189.393,45.009 189.182,44.907C188.97,44.82 188.708,44.776 188.393,44.776C187.862,44.776 187.39,44.995 186.977,45.433C186.554,45.891 186.338,46.6 186.329,47.559L186.329,51.775L185.423,51.775L185.423,45.944C185.423,45.36 185.405,44.764 185.367,44.156L186.276,44.156L186.276,45.441L186.304,45.455C186.373,45.314 186.467,45.159 186.588,44.988C186.685,44.818 186.824,44.66 187.002,44.513C187.182,44.363 187.405,44.231 187.671,44.12C187.938,44.022 188.27,43.973 188.667,43.973C188.847,43.973 189.042,43.993 189.25,44.032C189.449,44.071 189.647,44.151 189.846,44.272C190.044,44.383 190.219,44.543 190.37,44.751C190.515,44.969 190.62,45.246 190.682,45.581L190.711,45.581C190.9,45.124 191.204,44.745 191.621,44.439C192.028,44.138 192.534,43.983 193.14,43.973C193.911,43.983 194.504,44.221 194.921,44.689C195.329,45.151 195.533,45.764 195.533,46.528L195.533,51.775L194.627,51.775Z" style="fill:rgb(0,90,170);fill-rule:nonzero;"/>
        <path d="M202.524,47.433C202.524,46.734 202.382,46.122 202.099,45.598C201.801,45.069 201.312,44.795 200.632,44.776C199.966,44.795 199.44,45.074 199.052,45.613C198.656,46.156 198.458,46.763 198.458,47.433L202.524,47.433ZM202.966,51.539C202.274,51.808 201.56,51.948 200.825,51.958C199.618,51.933 198.753,51.548 198.23,50.804C197.711,50.075 197.457,49.128 197.466,47.965C197.476,46.779 197.765,45.818 198.335,45.083C198.886,44.353 199.633,43.983 200.576,43.973C201.607,43.993 202.361,44.368 202.836,45.097C203.289,45.812 203.515,46.698 203.515,47.753L203.515,48.235L198.458,48.235C198.458,49.064 198.666,49.748 199.081,50.285C199.486,50.855 200.09,51.146 200.892,51.155C201.251,51.155 201.628,51.089 202.025,50.958C202.421,50.85 202.736,50.726 202.966,50.584L202.966,51.539Z" style="fill:rgb(0,90,170);fill-rule:nonzero;"/>
        <path d="M205.495,44.156L206.398,44.156L206.398,51.775L205.495,51.775L205.495,44.156ZM206.398,42.12L205.495,42.12L205.495,40.866L206.398,40.866L206.398,42.12Z" style="fill:rgb(0,90,170);fill-rule:nonzero;"/>
        <path d="M208.815,45.943C208.815,45.36 208.796,44.764 208.758,44.156L209.64,44.156L209.64,45.512L209.668,45.512C209.752,45.333 209.854,45.153 209.971,44.973C210.084,44.792 210.228,44.63 210.402,44.484C210.585,44.324 210.811,44.197 211.08,44.105C211.352,44.017 211.674,43.973 212.045,43.973C212.954,43.983 213.605,44.263 214,44.813C214.376,45.348 214.564,46.043 214.564,46.9L214.564,51.775L213.661,51.775L213.661,47.135C213.661,46.41 213.531,45.833 213.271,45.404C212.988,44.995 212.533,44.786 211.906,44.776C211.094,44.795 210.523,45.092 210.193,45.666C210.023,45.94 209.903,46.235 209.832,46.551C209.756,46.882 209.718,47.218 209.718,47.559L209.718,51.775L208.815,51.775L208.815,45.943Z" style="fill:rgb(0,90,170);fill-rule:nonzero;"/>
        <path d="M216.561,50.672C217.122,50.985 217.761,51.146 218.482,51.155C218.938,51.155 219.324,51.031 219.639,50.783C219.95,50.554 220.11,50.225 220.12,49.796C220.11,49.343 219.931,48.988 219.583,48.73C219.234,48.481 218.824,48.257 218.353,48.057C218.131,47.951 217.919,47.835 217.717,47.714C217.515,47.592 217.322,47.458 217.138,47.312C216.973,47.152 216.836,46.966 216.728,46.757C216.625,46.557 216.573,46.324 216.573,46.055C216.583,45.295 216.832,44.757 217.321,44.441C217.796,44.129 218.347,43.973 218.973,43.973C219.185,43.973 219.46,43.993 219.799,44.032C220.133,44.089 220.464,44.184 220.794,44.314L220.709,45.133C220.176,44.905 219.629,44.786 219.068,44.776C218.596,44.776 218.221,44.863 217.943,45.039C217.797,45.131 217.684,45.257 217.604,45.418C217.519,45.575 217.476,45.784 217.476,46.046C217.476,46.203 217.531,46.351 217.639,46.493C217.743,46.624 217.881,46.744 218.056,46.85C218.231,46.953 218.428,47.057 218.65,47.165C218.872,47.267 219.088,47.376 219.3,47.494C219.782,47.703 220.201,47.983 220.559,48.333C220.917,48.684 221.101,49.169 221.111,49.788C221.111,50.187 221.033,50.521 220.878,50.789C220.713,51.066 220.506,51.291 220.257,51.46C219.716,51.791 219.143,51.958 218.537,51.958C217.827,51.958 217.139,51.837 216.477,51.596L216.561,50.672Z" style="fill:rgb(0,90,170);fill-rule:nonzero;"/>
        <path d="M227.744,45.164C227.22,44.915 226.693,44.786 226.16,44.776C225.273,44.786 224.594,45.078 224.123,45.654C223.627,46.244 223.38,47.014 223.38,47.965C223.38,48.853 223.624,49.597 224.109,50.197C224.581,50.826 225.231,51.146 226.061,51.155C226.631,51.155 227.187,51.041 227.73,50.811L227.814,51.69C227.216,51.877 226.585,51.967 225.921,51.958C224.735,51.933 223.851,51.529 223.272,50.746C222.683,49.977 222.389,49.05 222.389,47.965C222.399,46.759 222.735,45.798 223.399,45.083C224.059,44.353 224.937,43.983 226.035,43.973C226.487,43.973 226.863,44.007 227.165,44.075C227.32,44.104 227.455,44.135 227.567,44.168C227.675,44.208 227.758,44.241 227.814,44.27L227.744,45.164Z" style="fill:rgb(0,90,170);fill-rule:nonzero;"/>
        <path d="M229.577,40.565L230.48,40.565L230.48,45.434L230.508,45.434C230.711,45.007 231.01,44.654 231.406,44.374C231.801,44.117 232.267,43.983 232.804,43.973C233.789,43.983 234.459,44.283 234.818,44.872C235.167,45.469 235.335,46.25 235.326,47.213L235.326,51.775L234.422,51.775L234.422,47.223C234.422,46.887 234.404,46.568 234.366,46.266C234.324,45.979 234.241,45.725 234.118,45.506C233.887,45.029 233.403,44.786 232.667,44.776C231.875,44.795 231.308,45.109 230.968,45.718C230.633,46.327 230.47,46.985 230.48,47.691L230.48,51.775L229.577,51.775L229.577,40.565Z" style="fill:rgb(0,90,170);fill-rule:nonzero;"/>
        <path d="M242.042,47.935L241.78,47.935C241.383,47.935 240.987,47.946 240.59,47.965C240.175,48.003 239.797,48.089 239.458,48.221C239.118,48.338 238.846,48.521 238.644,48.77C238.421,49.024 238.311,49.36 238.311,49.78C238.311,50.267 238.466,50.617 238.778,50.826C239.066,51.045 239.422,51.155 239.847,51.155C240.38,51.155 240.8,51.045 241.107,50.826C241.41,50.617 241.628,50.368 241.765,50.08C241.907,49.767 241.988,49.462 242.006,49.165C242.03,48.853 242.042,48.596 242.042,48.397L242.042,47.935ZM242.125,50.555L242.097,50.555C241.885,51 241.56,51.342 241.123,51.58C240.689,51.822 240.232,51.948 239.751,51.958C239.238,51.948 238.823,51.863 238.507,51.703C238.177,51.552 237.925,51.363 237.751,51.134C237.444,50.639 237.3,50.197 237.32,49.808C237.32,49.171 237.468,48.669 237.765,48.3C238.057,47.931 238.429,47.666 238.882,47.505C239.334,47.34 239.827,47.231 240.359,47.178C240.882,47.149 241.384,47.134 241.865,47.134L242.042,47.134L242.042,46.745C242.071,45.432 241.509,44.776 240.357,44.776C239.593,44.766 238.869,44.976 238.184,45.408L238.184,44.494C238.868,44.166 239.59,43.993 240.353,43.973C242.1,43.955 242.964,44.9 242.945,46.812L242.945,50.176C242.93,50.755 242.956,51.289 243.021,51.775L242.125,51.775L242.125,50.555Z" style="fill:rgb(0,90,170);fill-rule:nonzero;"/>
        <path d="M245.983,44.958L244.493,44.958L244.493,44.156L245.983,44.156L245.983,43.601C245.983,43.193 246.001,42.793 246.04,42.405C246.058,42.025 246.131,41.687 246.258,41.39C246.38,41.079 246.578,40.833 246.851,40.653C247.109,40.478 247.469,40.39 247.93,40.39C248.085,40.39 248.245,40.395 248.41,40.405C248.575,40.434 248.699,40.478 248.784,40.536L248.727,41.36C248.524,41.249 248.284,41.192 248.005,41.192C247.703,41.192 247.474,41.263 247.319,41.404C247.153,41.565 247.042,41.759 246.986,41.988C246.929,42.216 246.901,42.46 246.901,42.718C246.891,42.986 246.886,43.244 246.886,43.492L246.886,44.156L248.55,44.156L248.55,44.958L246.886,44.958L246.886,51.775L245.983,51.775L245.983,44.958Z" style="fill:rgb(0,90,170);fill-rule:nonzero;"/>
        <path d="M253.513,44.958L251.834,44.958L251.834,49.898C251.834,50.249 251.912,50.543 252.068,50.783C252.209,51.031 252.459,51.155 252.819,51.155C253.149,51.155 253.43,51.094 253.661,50.972L253.717,51.748C253.61,51.787 253.459,51.83 253.266,51.877C253.064,51.931 252.842,51.958 252.603,51.958C252.208,51.958 251.895,51.887 251.665,51.746C251.443,51.605 251.276,51.419 251.164,51.191C251.065,50.953 251.001,50.685 250.973,50.388C250.945,50.086 250.93,49.76 250.93,49.411L250.93,44.958L249.484,44.958L249.484,44.156L250.93,44.156L250.93,42.317L251.834,41.989L251.834,44.156L253.513,44.156L253.513,44.958Z" style="fill:rgb(0,90,170);fill-rule:nonzero;"/>
        <path d="M6.701,6.602L4.765,6.602L4.765,5.867L7.509,5.867L7.509,10.118C6.689,10.474 5.831,10.657 4.937,10.645C3.626,10.621 2.609,10.216 1.874,9.42C1.139,8.624 0.759,7.558 0.759,6.222C0.771,4.899 1.139,3.834 1.886,3.025C2.621,2.229 3.638,1.812 4.937,1.8C5.28,1.8 5.659,1.824 6.088,1.886C6.505,1.947 6.86,2.057 7.154,2.204L7.056,2.988C6.738,2.804 6.395,2.682 6.039,2.608C5.672,2.559 5.304,2.535 4.937,2.535C3.859,2.547 3.025,2.902 2.45,3.576C1.862,4.25 1.568,5.132 1.568,6.222C1.568,7.313 1.862,8.195 2.437,8.869C3.013,9.555 3.846,9.898 4.937,9.91C5.218,9.91 5.537,9.886 5.88,9.837C6.223,9.8 6.493,9.726 6.701,9.604L6.701,6.602Z" style="fill:rgb(97,161,215);fill-rule:nonzero;"/>
        <path d="M13.843,10.302C13.267,10.523 12.692,10.633 12.079,10.645C11.099,10.621 10.388,10.314 9.96,9.702C9.531,9.101 9.323,8.33 9.335,7.374C9.347,6.406 9.58,5.61 10.045,5.01C10.499,4.409 11.111,4.115 11.883,4.103C12.728,4.115 13.341,4.422 13.733,5.022C14.1,5.61 14.284,6.333 14.284,7.203L14.284,7.595L10.143,7.595C10.143,8.268 10.315,8.832 10.658,9.273C10.989,9.739 11.479,9.971 12.14,9.984C12.434,9.984 12.741,9.935 13.071,9.824C13.39,9.739 13.647,9.628 13.843,9.518L13.843,10.302ZM13.476,6.933C13.476,6.357 13.365,5.867 13.133,5.438C12.888,4.997 12.483,4.777 11.92,4.765C11.381,4.777 10.952,5.01 10.633,5.451C10.303,5.892 10.143,6.382 10.143,6.933L13.476,6.933Z" style="fill:rgb(97,161,215);fill-rule:nonzero;"/>
        <path d="M16.416,4.912L15.191,4.912L15.191,4.25L16.416,4.25L16.416,3.797C16.416,3.466 16.428,3.135 16.465,2.817C16.477,2.498 16.538,2.229 16.649,1.984C16.747,1.726 16.906,1.53 17.126,1.383C17.347,1.236 17.641,1.163 18.021,1.163C18.143,1.163 18.278,1.163 18.413,1.175C18.548,1.2 18.646,1.236 18.719,1.285L18.67,1.959C18.499,1.873 18.302,1.824 18.082,1.824C17.837,1.824 17.641,1.886 17.518,1.996C17.384,2.131 17.286,2.29 17.249,2.474C17.2,2.657 17.175,2.866 17.175,3.074C17.163,3.295 17.163,3.503 17.163,3.711L17.163,4.25L18.523,4.25L18.523,4.912L17.163,4.912L17.163,10.498L16.416,10.498L16.416,4.912Z" style="fill:rgb(97,161,215);fill-rule:nonzero;"/>
        <path d="M19.528,7.374C19.528,6.48 19.76,5.72 20.214,5.095C20.667,4.446 21.377,4.115 22.345,4.103C23.325,4.115 24.036,4.446 24.502,5.095C24.943,5.72 25.163,6.48 25.163,7.374C25.163,8.244 24.943,9.003 24.502,9.641C24.036,10.29 23.325,10.621 22.345,10.645C21.377,10.621 20.667,10.29 20.214,9.641C19.76,9.003 19.528,8.244 19.528,7.374ZM20.336,7.374C20.336,8.121 20.508,8.734 20.863,9.212C21.194,9.714 21.684,9.971 22.345,9.984C23.007,9.971 23.509,9.714 23.852,9.212C24.195,8.734 24.354,8.121 24.354,7.374C24.354,6.627 24.195,6.002 23.852,5.512C23.509,5.022 23.007,4.777 22.345,4.765C21.684,4.777 21.194,5.022 20.863,5.512C20.508,6.002 20.336,6.627 20.336,7.374ZM23.031,2.18L23.913,2.18L23.913,3.209L23.031,3.209L23.031,2.18ZM20.936,2.18L21.819,2.18L21.819,3.209L20.936,3.209L20.936,2.18Z" style="fill:rgb(97,161,215);fill-rule:nonzero;"/>
        <path d="M26.792,5.647C26.792,5.071 26.78,4.605 26.743,4.25L27.491,4.25L27.491,5.451L27.515,5.451C27.662,5.083 27.858,4.765 28.116,4.507C28.373,4.25 28.691,4.115 29.071,4.103C29.267,4.115 29.439,4.14 29.586,4.177L29.586,4.973C29.426,4.924 29.243,4.899 29.047,4.899C28.753,4.912 28.508,4.985 28.324,5.12C28.128,5.267 27.981,5.463 27.858,5.72C27.748,5.965 27.662,6.235 27.626,6.517C27.564,6.823 27.54,7.117 27.54,7.399L27.54,10.498L26.792,10.498L26.792,5.647Z" style="fill:rgb(97,161,215);fill-rule:nonzero;"/>
        <path d="M35.457,10.498L34.71,10.498L34.71,9.506L34.685,9.506C34.293,10.278 33.668,10.657 32.799,10.645C31.978,10.621 31.353,10.314 30.949,9.702C30.52,9.089 30.312,8.305 30.312,7.374C30.299,6.406 30.495,5.622 30.9,5.022C31.292,4.422 31.929,4.115 32.799,4.103C33.105,4.103 33.362,4.152 33.583,4.238C33.815,4.324 33.999,4.446 34.158,4.581C34.465,4.863 34.636,5.108 34.685,5.304L34.71,5.304L34.71,1.31L35.457,1.31L35.457,10.498ZM31.12,7.374C31.12,7.668 31.145,7.962 31.206,8.268C31.267,8.575 31.353,8.869 31.488,9.126C31.623,9.371 31.819,9.567 32.039,9.726C32.272,9.898 32.554,9.984 32.921,9.984C33.252,9.984 33.534,9.898 33.766,9.726C33.999,9.567 34.183,9.359 34.318,9.101C34.587,8.55 34.722,7.974 34.71,7.374C34.71,7.08 34.685,6.774 34.624,6.468C34.563,6.173 34.465,5.892 34.318,5.634C34.183,5.365 33.999,5.157 33.766,4.997C33.534,4.838 33.252,4.765 32.921,4.765C32.554,4.765 32.272,4.838 32.039,4.997C31.819,5.144 31.623,5.34 31.488,5.61C31.353,5.855 31.267,6.124 31.206,6.443C31.145,6.749 31.12,7.068 31.12,7.374Z" style="fill:rgb(97,161,215);fill-rule:nonzero;"/>
        <path d="M41.534,10.302C40.958,10.523 40.382,10.633 39.769,10.645C38.789,10.621 38.079,10.314 37.65,9.702C37.221,9.101 37.013,8.33 37.025,7.374C37.037,6.406 37.27,5.61 37.736,5.01C38.189,4.409 38.802,4.115 39.573,4.103C40.419,4.115 41.031,4.422 41.423,5.022C41.791,5.61 41.975,6.333 41.975,7.203L41.975,7.595L37.834,7.595C37.834,8.268 38.005,8.832 38.348,9.273C38.679,9.739 39.169,9.971 39.831,9.984C40.125,9.984 40.431,9.935 40.762,9.824C41.08,9.739 41.338,9.628 41.534,9.518L41.534,10.302ZM41.166,6.933C41.166,6.357 41.056,5.867 40.823,5.438C40.578,4.997 40.174,4.777 39.61,4.765C39.071,4.777 38.642,5.01 38.324,5.451C37.993,5.892 37.834,6.382 37.834,6.933L41.166,6.933Z" style="fill:rgb(97,161,215);fill-rule:nonzero;"/>
        <path d="M43.592,5.647C43.592,5.071 43.579,4.605 43.543,4.25L44.29,4.25L44.29,5.451L44.315,5.451C44.462,5.083 44.658,4.765 44.915,4.507C45.172,4.25 45.491,4.115 45.87,4.103C46.066,4.115 46.238,4.14 46.385,4.177L46.385,4.973C46.226,4.924 46.042,4.899 45.846,4.899C45.552,4.912 45.307,4.985 45.123,5.12C44.927,5.267 44.78,5.463 44.658,5.72C44.547,5.965 44.462,6.235 44.425,6.517C44.364,6.823 44.339,7.117 44.339,7.399L44.339,10.498L43.592,10.498L43.592,5.647Z" style="fill:rgb(97,161,215);fill-rule:nonzero;"/>
        <path d="M50.281,4.912L48.909,4.912L48.909,8.954C48.909,9.248 48.97,9.481 49.105,9.677C49.215,9.886 49.423,9.984 49.717,9.984C49.987,9.984 50.22,9.935 50.403,9.837L50.452,10.474C50.367,10.51 50.244,10.535 50.085,10.584C49.913,10.621 49.729,10.645 49.533,10.645C49.215,10.645 48.958,10.584 48.762,10.474C48.578,10.351 48.443,10.204 48.357,10.02C48.272,9.824 48.223,9.604 48.198,9.359C48.174,9.114 48.161,8.844 48.161,8.562L48.161,4.912L46.973,4.912L46.973,4.25L48.161,4.25L48.161,2.743L48.909,2.474L48.909,4.25L50.281,4.25L50.281,4.912Z" style="fill:rgb(97,161,215);fill-rule:nonzero;"/>
        <path d="M59.959,10.498L59.212,10.498L59.212,9.506L59.187,9.506C58.795,10.278 58.17,10.657 57.301,10.645C56.48,10.621 55.855,10.314 55.451,9.702C55.022,9.089 54.814,8.305 54.814,7.374C54.801,6.406 54.997,5.622 55.402,5.022C55.794,4.422 56.431,4.115 57.301,4.103C57.607,4.103 57.864,4.152 58.085,4.238C58.317,4.324 58.501,4.446 58.66,4.581C58.967,4.863 59.138,5.108 59.187,5.304L59.212,5.304L59.212,1.31L59.959,1.31L59.959,10.498ZM55.622,7.374C55.622,7.668 55.647,7.962 55.708,8.268C55.769,8.575 55.855,8.869 55.99,9.126C56.125,9.371 56.321,9.567 56.541,9.726C56.774,9.898 57.056,9.984 57.423,9.984C57.754,9.984 58.036,9.898 58.268,9.726C58.501,9.567 58.685,9.359 58.82,9.101C59.089,8.55 59.224,7.974 59.212,7.374C59.212,7.08 59.187,6.774 59.126,6.468C59.065,6.173 58.967,5.892 58.82,5.634C58.685,5.365 58.501,5.157 58.268,4.997C58.036,4.838 57.754,4.765 57.423,4.765C57.056,4.765 56.774,4.838 56.541,4.997C56.321,5.144 56.125,5.34 55.99,5.61C55.855,5.855 55.769,6.124 55.708,6.443C55.647,6.749 55.622,7.068 55.622,7.374Z" style="fill:rgb(97,161,215);fill-rule:nonzero;"/>
        <path d="M66.699,9.028C66.687,9.506 66.711,9.996 66.748,10.498L66.025,10.498L66.025,9.383L66.001,9.383C65.94,9.518 65.866,9.653 65.768,9.8C65.682,9.947 65.56,10.082 65.413,10.216C65.253,10.339 65.07,10.437 64.849,10.51C64.629,10.596 64.359,10.645 64.041,10.645C63.306,10.633 62.767,10.412 62.448,9.959C62.117,9.518 61.958,8.942 61.97,8.244L61.97,4.25L62.717,4.25L62.717,8.048C62.717,8.648 62.828,9.114 63.061,9.445C63.281,9.8 63.649,9.984 64.163,9.984C64.494,9.984 64.788,9.91 65.021,9.763C65.266,9.628 65.449,9.445 65.572,9.224C65.707,8.991 65.817,8.746 65.866,8.489C65.927,8.232 65.952,7.962 65.952,7.705L65.952,4.25L66.699,4.25L66.699,9.028Z" style="fill:rgb(97,161,215);fill-rule:nonzero;"/>
        <path d="M68.784,5.647C68.784,5.071 68.771,4.605 68.735,4.25L69.482,4.25L69.482,5.451L69.506,5.451C69.653,5.083 69.85,4.765 70.107,4.507C70.364,4.25 70.683,4.115 71.062,4.103C71.258,4.115 71.43,4.14 71.577,4.177L71.577,4.973C71.418,4.924 71.234,4.899 71.038,4.899C70.744,4.912 70.499,4.985 70.315,5.12C70.119,5.267 69.972,5.463 69.85,5.72C69.739,5.965 69.653,6.235 69.617,6.517C69.555,6.823 69.531,7.117 69.531,7.399L69.531,10.498L68.784,10.498L68.784,5.647Z" style="fill:rgb(97,161,215);fill-rule:nonzero;"/>
        <path d="M76.587,5.083C76.158,4.875 75.729,4.777 75.288,4.765C74.565,4.777 74.002,5.01 73.622,5.487C73.206,5.965 73.01,6.59 73.01,7.374C73.01,8.097 73.206,8.709 73.61,9.2C73.99,9.714 74.529,9.971 75.203,9.984C75.668,9.984 76.134,9.886 76.575,9.702L76.648,10.425C76.158,10.584 75.631,10.657 75.092,10.645C74.124,10.621 73.402,10.29 72.924,9.653C72.446,9.028 72.201,8.268 72.201,7.374C72.213,6.382 72.483,5.598 73.034,5.01C73.573,4.409 74.284,4.115 75.19,4.103C75.558,4.103 75.864,4.128 76.109,4.189C76.244,4.213 76.354,4.238 76.44,4.262C76.526,4.299 76.599,4.324 76.648,4.348L76.587,5.083Z" style="fill:rgb(97,161,215);fill-rule:nonzero;"/>
        <path d="M78.08,1.31L78.827,1.31L78.827,5.304L78.851,5.304C79.011,4.948 79.256,4.667 79.586,4.434C79.917,4.226 80.297,4.115 80.738,4.103C81.547,4.115 82.098,4.36 82.392,4.838C82.674,5.328 82.821,5.965 82.808,6.762L82.808,10.498L82.061,10.498L82.061,6.774C82.061,6.492 82.049,6.235 82.012,5.99C81.975,5.745 81.914,5.536 81.816,5.365C81.62,4.973 81.228,4.777 80.616,4.765C79.966,4.777 79.501,5.034 79.231,5.536C78.949,6.039 78.815,6.578 78.827,7.154L78.827,10.498L78.08,10.498L78.08,1.31Z" style="fill:rgb(97,161,215);fill-rule:nonzero;"/>
    </g>
</svg>
